<mxfile host="app.diagrams.net" agent="Mozilla/5.0 (Windows NT 10.0; Win64; x64; rv:136.0) Gecko/20100101 Firefox/136.0" version="26.1.1">
  <diagram name="Page-1" id="vcaNRCK39FcBLp1qmmRz">
    <mxGraphModel dx="1050" dy="558" grid="1" gridSize="10" guides="1" tooltips="1" connect="1" arrows="1" fold="1" page="1" pageScale="1" pageWidth="827" pageHeight="1169" math="0" shadow="0">
      <root>
        <mxCell id="0" />
        <mxCell id="1" parent="0" />
        <mxCell id="sEr-CS446hN8R4enNYc5-1" value="" style="whiteSpace=wrap;html=1;aspect=fixed;" vertex="1" parent="1">
          <mxGeometry x="230" y="20" width="500" height="500" as="geometry" />
        </mxCell>
        <mxCell id="sEr-CS446hN8R4enNYc5-2" value="Reporting subsystem" style="text;html=1;align=center;verticalAlign=middle;whiteSpace=wrap;rounded=0;" vertex="1" parent="1">
          <mxGeometry x="384" y="20" width="60" height="30" as="geometry" />
        </mxCell>
        <mxCell id="sEr-CS446hN8R4enNYc5-14" style="edgeStyle=orthogonalEdgeStyle;rounded=0;orthogonalLoop=1;jettySize=auto;html=1;entryX=0;entryY=0.5;entryDx=0;entryDy=0;endArrow=none;startFill=0;" edge="1" parent="1" source="sEr-CS446hN8R4enNYc5-3" target="sEr-CS446hN8R4enNYc5-8">
          <mxGeometry relative="1" as="geometry" />
        </mxCell>
        <mxCell id="sEr-CS446hN8R4enNYc5-15" style="edgeStyle=orthogonalEdgeStyle;rounded=0;orthogonalLoop=1;jettySize=auto;html=1;entryX=0;entryY=0.5;entryDx=0;entryDy=0;endArrow=none;startFill=0;" edge="1" parent="1" source="sEr-CS446hN8R4enNYc5-3" target="sEr-CS446hN8R4enNYc5-10">
          <mxGeometry relative="1" as="geometry">
            <Array as="points">
              <mxPoint x="250" y="120" />
              <mxPoint x="250" y="220" />
            </Array>
          </mxGeometry>
        </mxCell>
        <mxCell id="sEr-CS446hN8R4enNYc5-3" value="&lt;div&gt;User&lt;/div&gt;&lt;div&gt;&lt;br&gt;&lt;/div&gt;" style="shape=umlActor;verticalLabelPosition=bottom;verticalAlign=top;html=1;outlineConnect=0;" vertex="1" parent="1">
          <mxGeometry x="90" y="85" width="30" height="60" as="geometry" />
        </mxCell>
        <mxCell id="sEr-CS446hN8R4enNYc5-8" value="&lt;div&gt;choose incident type&lt;/div&gt;" style="ellipse;whiteSpace=wrap;html=1;" vertex="1" parent="1">
          <mxGeometry x="344" y="80" width="140" height="70" as="geometry" />
        </mxCell>
        <mxCell id="sEr-CS446hN8R4enNYc5-11" value="" style="edgeStyle=orthogonalEdgeStyle;rounded=0;orthogonalLoop=1;jettySize=auto;html=1;dashed=1;endArrow=open;endFill=0;" edge="1" parent="1" source="sEr-CS446hN8R4enNYc5-10" target="sEr-CS446hN8R4enNYc5-8">
          <mxGeometry relative="1" as="geometry" />
        </mxCell>
        <mxCell id="sEr-CS446hN8R4enNYc5-13" value="&amp;lt;&amp;lt;include&amp;gt;&amp;gt;" style="edgeLabel;html=1;align=center;verticalAlign=middle;resizable=0;points=[];" vertex="1" connectable="0" parent="sEr-CS446hN8R4enNYc5-11">
          <mxGeometry x="0.36" y="-3" relative="1" as="geometry">
            <mxPoint as="offset" />
          </mxGeometry>
        </mxCell>
        <mxCell id="sEr-CS446hN8R4enNYc5-10" value="&lt;div&gt;fills out report with details such as description and photos&lt;/div&gt;" style="ellipse;whiteSpace=wrap;html=1;" vertex="1" parent="1">
          <mxGeometry x="336" y="180" width="156" height="80" as="geometry" />
        </mxCell>
        <mxCell id="sEr-CS446hN8R4enNYc5-17" value="" style="edgeStyle=orthogonalEdgeStyle;rounded=0;orthogonalLoop=1;jettySize=auto;html=1;dashed=1;" edge="1" parent="1" source="sEr-CS446hN8R4enNYc5-16" target="sEr-CS446hN8R4enNYc5-10">
          <mxGeometry relative="1" as="geometry" />
        </mxCell>
        <mxCell id="sEr-CS446hN8R4enNYc5-18" value="&amp;lt;&amp;lt;include&amp;gt;&amp;gt;" style="edgeLabel;html=1;align=center;verticalAlign=middle;resizable=0;points=[];" vertex="1" connectable="0" parent="sEr-CS446hN8R4enNYc5-17">
          <mxGeometry x="0.32" y="-1" relative="1" as="geometry">
            <mxPoint as="offset" />
          </mxGeometry>
        </mxCell>
        <mxCell id="sEr-CS446hN8R4enNYc5-16" value="upload live location to the report" style="ellipse;whiteSpace=wrap;html=1;" vertex="1" parent="1">
          <mxGeometry x="344" y="290" width="140" height="70" as="geometry" />
        </mxCell>
        <mxCell id="sEr-CS446hN8R4enNYc5-21" value="" style="edgeStyle=orthogonalEdgeStyle;rounded=0;orthogonalLoop=1;jettySize=auto;html=1;dashed=1;" edge="1" parent="1" source="sEr-CS446hN8R4enNYc5-19" target="sEr-CS446hN8R4enNYc5-16">
          <mxGeometry relative="1" as="geometry" />
        </mxCell>
        <mxCell id="sEr-CS446hN8R4enNYc5-22" value="&amp;lt;&amp;lt;include&amp;gt;&amp;gt;" style="edgeLabel;html=1;align=center;verticalAlign=middle;resizable=0;points=[];" vertex="1" connectable="0" parent="sEr-CS446hN8R4enNYc5-21">
          <mxGeometry x="0.36" y="1" relative="1" as="geometry">
            <mxPoint as="offset" />
          </mxGeometry>
        </mxCell>
        <mxCell id="sEr-CS446hN8R4enNYc5-19" value="Redirect to that specific incident report" style="ellipse;whiteSpace=wrap;html=1;" vertex="1" parent="1">
          <mxGeometry x="344" y="390" width="140" height="70" as="geometry" />
        </mxCell>
      </root>
    </mxGraphModel>
  </diagram>
</mxfile>
